<svg width="16" height="16" viewBox="0 0 24 24" fill="none" xmlns="http://www.w3.org/2000/svg">
<path d="M10 14L14 10" stroke="#e8edf7" stroke-width="2" stroke-linecap="round" stroke-linejoin="round"/>
<path d="M7 17C6.20435 17 5.44129 16.6839 4.87868 16.1213C4.31607 15.5587 4 14.7956 4 14C4 13.2044 4.31607 12.4413 4.87868 11.8787L8.87868 7.87868C9.44129 7.31607 10.2044 7 11 7C11.7956 7 12.5587 7.31607 13.1213 7.87868C13.6839 8.44129 14 9.20435 14 10" stroke="#e8edf7" stroke-width="2" stroke-linecap="round" stroke-linejoin="round"/>
<path d="M17 7C17.7956 7 18.5587 7.31607 19.1213 7.87868C19.6839 8.44129 20 9.20435 20 10C20 10.7956 19.6839 11.5587 19.1213 12.1213L15.1213 16.1213C14.5587 16.6839 13.7956 17 13 17C12.2044 17 11.4413 16.6839 10.8787 16.1213C10.3161 15.5587 10 14.7956 10 14" stroke="#e8edf7" stroke-width="2" stroke-linecap="round" stroke-linejoin="round"/>
</svg>

